<svg width="17" height="16" viewBox="0 0 17 16" fill="none" xmlns="http://www.w3.org/2000/svg">
<g clip-path="url(#clip0_1206_4551)">
<path d="M8.59778 1.44062C10.7353 1.44062 10.9884 1.45 11.829 1.4875C12.6103 1.52187 13.0322 1.65313 13.3134 1.7625C13.6853 1.90625 13.954 2.08125 14.2322 2.35938C14.5134 2.64062 14.6853 2.90625 14.829 3.27813C14.9384 3.55938 15.0697 3.98438 15.104 4.7625C15.1415 5.60625 15.1509 5.85938 15.1509 7.99375C15.1509 10.1313 15.1415 10.3844 15.104 11.225C15.0697 12.0063 14.9384 12.4281 14.829 12.7094C14.6853 13.0813 14.5103 13.35 14.2322 13.6281C13.9509 13.9094 13.6853 14.0813 13.3134 14.225C13.0322 14.3344 12.6072 14.4656 11.829 14.5C10.9853 14.5375 10.7322 14.5469 8.59778 14.5469C6.46028 14.5469 6.20715 14.5375 5.36653 14.5C4.58528 14.4656 4.1634 14.3344 3.88215 14.225C3.51028 14.0813 3.24153 13.9063 2.9634 13.6281C2.68215 13.3469 2.51028 13.0813 2.36653 12.7094C2.25715 12.4281 2.1259 12.0031 2.09153 11.225C2.05403 10.3813 2.04465 10.1281 2.04465 7.99375C2.04465 5.85625 2.05403 5.60313 2.09153 4.7625C2.1259 3.98125 2.25715 3.55938 2.36653 3.27813C2.51028 2.90625 2.68528 2.6375 2.9634 2.35938C3.24465 2.07812 3.51028 1.90625 3.88215 1.7625C4.1634 1.65313 4.5884 1.52187 5.36653 1.4875C6.20715 1.45 6.46028 1.44062 8.59778 1.44062ZM8.59778 0C6.4259 0 6.15403 0.009375 5.3009 0.046875C4.4509 0.084375 3.86653 0.221875 3.36028 0.41875C2.83215 0.625 2.38528 0.896875 1.94153 1.34375C1.49465 1.7875 1.22278 2.23438 1.01653 2.75938C0.819653 3.26875 0.682153 3.85 0.644653 4.7C0.607153 5.55625 0.597778 5.82812 0.597778 8C0.597778 10.1719 0.607153 10.4438 0.644653 11.2969C0.682153 12.1469 0.819653 12.7313 1.01653 13.2375C1.22278 13.7656 1.49465 14.2125 1.94153 14.6562C2.38528 15.1 2.83215 15.375 3.35715 15.5781C3.86653 15.775 4.44778 15.9125 5.29778 15.95C6.1509 15.9875 6.42278 15.9969 8.59465 15.9969C10.7665 15.9969 11.0384 15.9875 11.8915 15.95C12.7415 15.9125 13.3259 15.775 13.8322 15.5781C14.3572 15.375 14.804 15.1 15.2478 14.6562C15.6915 14.2125 15.9665 13.7656 16.1697 13.2406C16.3665 12.7313 16.504 12.15 16.5415 11.3C16.579 10.4469 16.5884 10.175 16.5884 8.00313C16.5884 5.83125 16.579 5.55938 16.5415 4.70625C16.504 3.85625 16.3665 3.27188 16.1697 2.76562C15.9728 2.23438 15.7009 1.7875 15.254 1.34375C14.8103 0.9 14.3634 0.625 13.8384 0.421875C13.329 0.225 12.7478 0.0875 11.8978 0.05C11.0415 0.009375 10.7697 0 8.59778 0Z" fill="#0E2358"/>
<path d="M8.59778 3.89062C6.32903 3.89062 4.4884 5.73125 4.4884 8C4.4884 10.2688 6.32903 12.1094 8.59778 12.1094C10.8665 12.1094 12.7072 10.2688 12.7072 8C12.7072 5.73125 10.8665 3.89062 8.59778 3.89062ZM8.59778 10.6656C7.1259 10.6656 5.93215 9.47188 5.93215 8C5.93215 6.52813 7.1259 5.33437 8.59778 5.33437C10.0697 5.33437 11.2634 6.52813 11.2634 8C11.2634 9.47188 10.0697 10.6656 8.59778 10.6656Z" fill="#0E2358"/>
<path d="M13.829 3.72808C13.829 4.25933 13.3978 4.68746 12.8697 4.68746C12.3384 4.68746 11.9103 4.25621 11.9103 3.72808C11.9103 3.19683 12.3415 2.76871 12.8697 2.76871C13.3978 2.76871 13.829 3.19996 13.829 3.72808Z" fill="#0E2358"/>
</g>
<defs>
<clipPath id="clip0_1206_4551">
<rect width="16" height="16" fill="white" transform="translate(0.597778)"/>
</clipPath>
</defs>
</svg>
