<svg width="17" height="16" viewBox="0 0 17 16" fill="none" xmlns="http://www.w3.org/2000/svg">
<path d="M15.4134 0H1.77903C1.1259 0 0.597778 0.515625 0.597778 1.15313V14.8438C0.597778 15.4813 1.1259 16 1.77903 16H15.4134C16.0665 16 16.5978 15.4813 16.5978 14.8469V1.15313C16.5978 0.515625 16.0665 0 15.4134 0ZM5.34465 13.6344H2.96965V5.99687H5.34465V13.6344ZM4.15715 4.95625C3.39465 4.95625 2.77903 4.34062 2.77903 3.58125C2.77903 2.82188 3.39465 2.20625 4.15715 2.20625C4.91653 2.20625 5.53215 2.82188 5.53215 3.58125C5.53215 4.3375 4.91653 4.95625 4.15715 4.95625ZM14.2322 13.6344H11.8603V9.92188C11.8603 9.0375 11.8447 7.89687 10.6259 7.89687C9.39153 7.89687 9.20403 8.8625 9.20403 9.85938V13.6344H6.83528V5.99687H9.11028V7.04063H9.14153C9.45715 6.44063 10.2322 5.80625 11.3853 5.80625C13.7884 5.80625 14.2322 7.3875 14.2322 9.44375V13.6344Z" fill="#0E2358"/>
</svg>
