<svg width="17" height="16" viewBox="0 0 17 16" fill="none" xmlns="http://www.w3.org/2000/svg">
<g clip-path="url(#clip0_1206_4552)">
<path fill-rule="evenodd" clip-rule="evenodd" d="M16.5978 8C16.5978 12.4183 13.0161 16 8.59778 16C4.1795 16 0.597778 12.4183 0.597778 8C0.597778 3.58172 4.1795 0 8.59778 0C13.0161 0 16.5978 3.58172 16.5978 8ZM8.88446 5.90595C8.10634 6.2296 6.5512 6.89946 4.21904 7.91555C3.84033 8.06615 3.64195 8.21348 3.62389 8.35754C3.59337 8.601 3.89825 8.69687 4.31342 8.82741C4.3699 8.84517 4.42841 8.86357 4.4884 8.88307C4.89687 9.01585 5.44633 9.17118 5.73197 9.17735C5.99107 9.18295 6.28026 9.07613 6.59954 8.85689C8.77855 7.386 9.90337 6.64254 9.97399 6.62651C10.0238 6.6152 10.0928 6.60099 10.1396 6.64256C10.1864 6.68414 10.1818 6.76288 10.1768 6.784C10.1466 6.91276 8.94986 8.0254 8.33053 8.60119C8.13745 8.78069 8.00049 8.90801 7.9725 8.93709C7.90978 9.00223 7.84586 9.06385 7.78443 9.12307C7.40496 9.48889 7.12039 9.76321 7.80019 10.2112C8.12687 10.4265 8.38829 10.6045 8.64908 10.7821C8.9339 10.9761 9.21797 11.1695 9.58552 11.4104C9.67916 11.4718 9.7686 11.5356 9.85571 11.5977C10.1872 11.834 10.4849 12.0463 10.8528 12.0124C11.0666 11.9928 11.2874 11.7917 11.3996 11.1922C11.6646 9.77543 12.1855 6.70564 12.3059 5.44065C12.3165 5.32982 12.3032 5.18798 12.2925 5.12572C12.2819 5.06345 12.2596 4.97474 12.1787 4.90907C12.0828 4.83129 11.9349 4.81489 11.8687 4.81606C11.5678 4.82136 11.1061 4.98188 8.88446 5.90595Z" fill="#0E2358"/>
</g>
<defs>
<clipPath id="clip0_1206_4552">
<rect width="16" height="16" fill="white" transform="translate(0.597778)"/>
</clipPath>
</defs>
</svg>
