<svg width="17" height="16" viewBox="0 0 17 16" fill="none" xmlns="http://www.w3.org/2000/svg">
<g clip-path="url(#clip0_1206_4549)">
<path fill-rule="evenodd" clip-rule="evenodd" d="M8.6044 0C4.17694 0 0.597778 3.60555 0.597778 8.06611C0.597778 11.6317 2.89107 14.6498 6.07248 15.7181C6.47024 15.7984 6.61594 15.5445 6.61594 15.331C6.61594 15.144 6.60282 14.503 6.60282 13.8352C4.37558 14.316 3.91177 12.8736 3.91177 12.8736C3.55384 11.9388 3.0235 11.6985 3.0235 11.6985C2.29452 11.2044 3.0766 11.2044 3.0766 11.2044C3.88522 11.2578 4.30953 12.0324 4.30953 12.0324C5.02523 13.2609 6.17852 12.9138 6.64249 12.7001C6.7087 12.1792 6.92093 11.8187 7.14628 11.6184C5.36989 11.4314 3.5009 10.737 3.5009 7.63869C3.5009 6.7573 3.81885 6.03619 4.32264 5.47536C4.24316 5.27509 3.96471 4.44696 4.40229 3.33858C4.40229 3.33858 5.07833 3.12487 6.60266 4.16654C7.25528 3.98998 7.92832 3.90016 8.6044 3.8994C9.28044 3.8994 9.96959 3.99299 10.606 4.16654C12.1305 3.12487 12.8065 3.33858 12.8065 3.33858C13.2441 4.44696 12.9655 5.27509 12.886 5.47536C13.4031 6.03619 13.7079 6.7573 13.7079 7.63869C13.7079 10.737 11.8389 11.418 10.0492 11.6184C10.341 11.8721 10.5927 12.3528 10.5927 13.114C10.5927 14.1957 10.5796 15.0638 10.5796 15.3308C10.5796 15.5445 10.7254 15.7984 11.123 15.7182C14.3044 14.6497 16.5977 11.6317 16.5977 8.06611C16.6109 3.60555 13.0186 0 8.6044 0Z" fill="#0E2358"/>
</g>
<defs>
<clipPath id="clip0_1206_4549">
<rect width="16" height="16" fill="white" transform="translate(0.597778)"/>
</clipPath>
</defs>
</svg>
