<svg width="15" height="16" viewBox="0 0 15 16" fill="none" xmlns="http://www.w3.org/2000/svg">
<path fill-rule="evenodd" clip-rule="evenodd" d="M1.61714 13.8726L9.28248 15.9257C9.55933 15.9998 9.84808 16.0187 10.1322 15.9813C10.4164 15.9439 10.6904 15.8508 10.9386 15.7075C11.1868 15.5642 11.4043 15.3733 11.5788 15.1459C11.7532 14.9185 11.8812 14.659 11.9553 14.3821L14.5234 4.80025C14.6732 4.24123 14.5948 3.6456 14.3055 3.14436C14.0162 2.64312 13.5396 2.27732 12.9806 2.12742L5.3145 0.074388C4.75548 -0.0754212 4.15985 0.00295008 3.65861 0.292265C3.15737 0.581579 2.79157 1.05814 2.64167 1.61714L0.0743879 11.1998C-0.0754213 11.7588 0.00295037 12.3545 0.292265 12.8557C0.58158 13.3569 1.05814 13.7227 1.61714 13.8726ZM5.27085 3.19005C5.34834 3.17981 5.42708 3.18493 5.50258 3.20512L5.50179 3.20671L11.2506 4.74629C11.3894 4.77616 11.513 4.85474 11.5989 4.96781C11.6848 5.08088 11.7273 5.22097 11.7189 5.36272C11.7105 5.50446 11.6516 5.63851 11.5528 5.74058C11.4541 5.84266 11.3221 5.90603 11.1808 5.91922C11.1009 5.92737 11.0202 5.91928 10.9435 5.89541L5.19387 4.35584C5.05994 4.32089 4.94237 4.24036 4.8614 4.12809C4.78043 4.01583 4.74112 3.87885 4.75023 3.74073C4.75934 3.60261 4.81631 3.47199 4.91133 3.37133C5.00636 3.27068 5.13349 3.20709 5.27085 3.19005ZM4.39314 5.76526C4.526 5.68591 4.68456 5.66143 4.83517 5.69701L10.584 7.23659C10.7366 7.27742 10.8667 7.3772 10.9457 7.51397C11.0248 7.65075 11.0462 7.81331 11.0054 7.9659C10.9645 8.1185 10.8648 8.24862 10.728 8.32765C10.5912 8.40668 10.4287 8.42814 10.2761 8.3873L4.52646 6.84614C4.41597 6.81283 4.31755 6.74811 4.24318 6.65987C4.16881 6.57164 4.12169 6.46368 4.10757 6.34915C4.09344 6.23462 4.11291 6.11845 4.16361 6.01478C4.21431 5.91112 4.29406 5.82443 4.39314 5.76526ZM3.71541 8.24763C3.61345 8.30649 3.53124 8.39427 3.47917 8.49986C3.42711 8.60545 3.40752 8.72411 3.4229 8.84083C3.43828 8.95754 3.48792 9.06708 3.56555 9.15559C3.64319 9.24409 3.74533 9.30758 3.85905 9.33803L7.69211 10.3649C7.76762 10.3852 7.84637 10.3903 7.92386 10.3801C8.00136 10.3699 8.07608 10.3445 8.14377 10.3054C8.21145 10.2663 8.27078 10.2143 8.31835 10.1523C8.36592 10.0902 8.40082 10.0194 8.42103 9.94394C8.44125 9.86844 8.4464 9.78969 8.43618 9.7122C8.42597 9.6347 8.40059 9.55998 8.3615 9.49229C8.3224 9.4246 8.27036 9.36528 8.20834 9.31771C8.14632 9.27013 8.07553 9.23524 8.00003 9.21502L4.16696 8.18811C4.0145 8.1473 3.85208 8.16871 3.71541 8.24763Z" fill="#0E2358"/>
</svg>
